<?xml version="1.0" encoding="UTF-8"?>
<svg xmlns="http://www.w3.org/2000/svg" style="display: none;">
 <symbol id="star" viewBox="0 0 11 10">
  <path d="M5.5 0L6.73483 3.80041H10.7308L7.49799 6.14919L8.73282 9.94959L5.5 7.60081L2.26718 9.94959L3.50201 6.14919L0.269189 3.80041H4.26517L5.5 0Z" fill="currentColor"/>
</symbol>


  <symbol id="chevron-right" viewBox="0 0 6 10">
  
    <path d="M5.7779 4.6098L1.32777 0.159755C1.22485 0.0567475 1.08745 0 0.940948 0C0.794445 0 0.657048 0.0567475 0.554122 0.159755L0.226401 0.487394C0.0131509 0.700889 0.0131509 1.04788 0.226401 1.26105L3.96328 4.99793L0.222255 8.73895C0.119329 8.84196 0.0625 8.97928 0.0625 9.1257C0.0625 9.27228 0.119329 9.4096 0.222255 9.51269L0.549976 9.84025C0.652983 9.94325 0.790299 10 0.936802 10C1.0833 10 1.2207 9.94325 1.32363 9.84025L5.7779 5.38614C5.88107 5.2828 5.93774 5.14484 5.93741 4.99817C5.93774 4.85094 5.88107 4.71305 5.7779 4.6098Z" fill="currentColor"/>
  </symbol>
  <symbol id="chevron-right-2" viewBox="0 0 9 15">
    <rect x="1.093" width="10.82" height="1.546" rx=".773" transform="rotate(45 1.093 0)" stroke-width="0" fill="currentColor"/><rect width="10.82" height="1.546" rx=".773" transform="scale(-1 1) rotate(45 -11.756 -5.951)" stroke-width="0" fill="currentColor"/>
  </symbol>
  <symbol id="chevron-down" viewBox="0 0 16 9">
    <path d="M15 1L8.03683 7.96317L1.07366 0.999999" stroke="currentColor" stroke-width="2" stroke-linecap="round" stroke-linejoin="round"/>
  </symbol>
  <symbol id="select" viewBox="0 0 10 4">
    <path d="M8.5 1.25 5.018 2.99 1.537 1.25" stroke="currentColor" stroke-width="2" stroke-linecap="round" stroke-linejoin="round"/>
  </symbol>
  <symbol id="search" viewBox="0 0 24 24">
    <path d="M11 20a9 9 0 1 0 0-18 9 9 0 0 0 0 18ZM22 22l-4-4" stroke="currentColor" stroke-width="2" stroke-linecap="round" stroke-linejoin="round"/>
  </symbol>
  <symbol id="thumb" viewBox="0 0 25 24">
    <path d="M1 14a3 3 0 0 1 3-3h1.177a2 2 0 0 0 1.84-1.218l3.366-7.919A1.418 1.418 0 0 1 11.688 1a2.835 2.835 0 0 1 2.816 3.165l-.37 3.16A1.5 1.5 0 0 0 15.624 9h4.665a3 3 0 0 1 2.933 3.629l-1.714 8A3 3 0 0 1 18.575 23H4a3 3 0 0 1-3-3v-6ZM7 10v13" stroke="currentColor" stroke-width="2"/>
  </symbol>
  <symbol id="close" viewBox="0 0 12 12">
    <path d="m3 3 6.387 6.387M3 9.387 9.387 3" stroke="currentColor" stroke-width="2" stroke-linecap="round" stroke-linejoin="round"/>
  </symbol>
  <symbol id="alert-info" viewBox="0 0 24 24">
    <circle cx="12" cy="12" r="11" stroke="currentColor" stroke-width="2"/><path d="M12 7v5M12 16v.5" stroke="currentColor" stroke-width="2" stroke-linecap="round" stroke-linejoin="round"/>
  </symbol>
  <symbol id="calendar" viewBox="0 0 24 24">
    <rect x="2" y="3" width="20" height="19" rx="3" stroke="currentColor" stroke-width="2"/><path d="M7 1v2M17 1v2M2 8h20M6.5 13h1M11.5 13h1M16.5 13h1M6.5 17h1M11.5 17h1M16.5 17h1" stroke="currentColor" stroke-width="2" stroke-linecap="round" stroke-linejoin="round"/>
  </symbol>
  <symbol id="profile" viewBox="0 0 24 24">
    <path d="m3 21.5.165-1.064c.209-1.34 1.083-2.49 2.38-2.89C7.137 17.057 9.491 16.5 12 16.5c2.51 0 4.863.555 6.455 1.047 1.297.4 2.17 1.548 2.38 2.89L21 21.5M12 12a5 5 0 1 0 0-10 5 5 0 0 0 0 10Z" stroke="currentColor" stroke-width="2" stroke-linecap="round" stroke-linejoin="round"/>
  </symbol>
  <symbol id="star" width="22" height="23" viewBox="0 0 22 23" fill="none">
   <path d="M10.3079 1.65797C10.5645 1.0432 11.4355 1.0432 11.6921 1.65797L13.8937 6.93186C13.9962 7.17755 14.2214 7.35045 14.4852 7.38616L20.2876 8.17148C20.9378 8.25948 21.1695 9.08097 20.6612 9.49579L16.1809 13.1518C15.9594 13.3326 15.86 13.6235 15.9244 13.902L17.3568 20.0919C17.5119 20.762 16.7583 21.27 16.1953 20.8748L11.4309 17.5309C11.1723 17.3494 10.8277 17.3494 10.5691 17.5309L5.8047 20.8749C5.24167 21.27 4.48807 20.7621 4.64315 20.0919L6.07545 13.902C6.1399 13.6235 6.04042 13.3326 5.81895 13.1518L1.3388 9.49578C0.830477 9.08096 1.06222 8.25948 1.7124 8.17149L7.51479 7.38616C7.77862 7.35045 8.00375 7.17755 8.10631 6.93186L10.3079 1.65797Z" stroke="#ED2E7E" stroke-width="2" stroke-miterlimit="3.3292" stroke-linecap="round" stroke-linejoin="round"/>
  </symbol>
  <symbol id="location" viewBox="0 0 20 22">
    <path d="M18.3337 10.1667C18.3337 13.6874 13.4572 18.161 11.165 20.0695C10.4835 20.6368 9.51713 20.6368 8.83568 20.0695C6.54341 18.161 1.66699 13.6874 1.66699 10.1667C1.66699 5.56433 5.39795 1.83337 10.0003 1.83337C14.6027 1.83337 18.3337 5.56433 18.3337 10.1667Z" stroke="#BCA4FF" stroke-width="2"/>
    <ellipse cx="10" cy="10.1666" rx="2.5" ry="2.5" stroke="#BCA4FF" stroke-width="2"/>
  </symbol>
</svg>
